<svg width="48" height="48" viewBox="0 0 48 48" fill="none" xmlns="http://www.w3.org/2000/svg">
<circle cx="24" cy="24" r="23.5" stroke="#2B2A29" stroke-opacity="0.1"/>
<path d="M27.3333 20.6667C28.6593 20.6667 29.9311 21.1935 30.8688 22.1312C31.8065 23.0689 32.3333 24.3407 32.3333 25.6667V31.5001H28.9999V25.6667C28.9999 25.2247 28.8243 24.8008 28.5118 24.4882C28.1992 24.1757 27.7753 24.0001 27.3333 24.0001C26.8912 24.0001 26.4673 24.1757 26.1547 24.4882C25.8422 24.8008 25.6666 25.2247 25.6666 25.6667V31.5001H22.3333V25.6667C22.3333 24.3407 22.86 23.0689 23.7977 22.1312C24.7354 21.1935 26.0072 20.6667 27.3333 20.6667V20.6667Z" stroke="#727271" stroke-width="1.25" stroke-linecap="round"/>
<path d="M19.0001 21.5H15.6667L15.6667 31.5H19.0001V21.5Z" stroke="#727271" stroke-width="1.25" stroke-linecap="round"/>
<path d="M17.3334 19.0001C18.2539 19.0001 19.0001 18.2539 19.0001 17.3334C19.0001 16.4129 18.2539 15.6667 17.3334 15.6667C16.4129 15.6667 15.6667 16.4129 15.6667 17.3334C15.6667 18.2539 16.4129 19.0001 17.3334 19.0001Z" stroke="#727271" stroke-width="1.25" stroke-linecap="round"/>
</svg>
