<svg width="16" height="16" viewBox="0 0 16 16" fill="none" xmlns="http://www.w3.org/2000/svg">
<path d="M10.8751 6.39427V3.74126L8.16312 1.0293H1V14.707H9.57805C9.95144 14.7168 10.7336 14.5302 10.8751 13.7048V11.4055" stroke="#737373" stroke-width="1.25"/>
<path d="M7.95732 1V2.70972C7.94749 3.07328 8.18724 3.81808 9.22486 3.88883H10.8756" stroke="#737373" stroke-width="1.25"/>
<path d="M4.94933 7.63268L3.97656 8.51702L4.94933 9.78456H5.89262V8.98866L7.04226 8.90023L7.16017 9.78456H8.28033V8.98866H9.60683V9.78456H11.2576C11.8943 11.1052 13.3702 10.8654 14.0285 10.5805C15.7972 9.16553 14.7458 7.51477 14.0285 6.98417C12.6372 6.15879 11.4246 7.0726 10.9923 7.63268H4.94933Z" stroke="#737373" stroke-width="1.25"/>
<path d="M2.85742 4.36035H6.01155" stroke="#737373" stroke-width="1.25"/>
<path d="M2.79688 5.65723H4.24129" stroke="#737373" stroke-width="1.25"/>
<path d="M4.86328 5.62793H5.71814" stroke="#737373" stroke-width="1.25"/>
<path d="M6.48242 5.65723H8.6343" stroke="#737373" stroke-width="1.25"/>
<path d="M2.85742 11.4058H4.27236" stroke="#737373" stroke-width="1.25"/>
<path d="M5.06641 11.376H6.09813" stroke="#737373" stroke-width="1.25"/>
<path d="M4.35938 12.9092H6.74708" stroke="#737373" stroke-width="1.25"/>
<path d="M2.88672 12.9092H3.74158" stroke="#737373" stroke-width="1.25"/>
<mask id="path-12-inside-1_987_1559" fill="white">
<ellipse cx="13.1895" cy="8.73819" rx="0.810641" ry="0.781163"/>
</mask>
<path d="M12.7502 8.73819C12.7502 8.43603 12.9909 8.26936 13.1895 8.26936V10.7694C14.2836 10.7694 15.2502 9.90321 15.2502 8.73819H12.7502ZM13.1895 8.26936C13.3882 8.26936 13.6289 8.43603 13.6289 8.73819H11.1289C11.1289 9.90321 12.0955 10.7694 13.1895 10.7694V8.26936ZM13.6289 8.73819C13.6289 9.04036 13.3882 9.20703 13.1895 9.20703V6.70703C12.0955 6.70703 11.1289 7.57318 11.1289 8.73819H13.6289ZM13.1895 9.20703C12.9909 9.20703 12.7502 9.04036 12.7502 8.73819H15.2502C15.2502 7.57318 14.2836 6.70703 13.1895 6.70703V9.20703Z" fill="#737373" mask="url(#path-12-inside-1_987_1559)"/>
</svg>
