<svg width="14" height="16" viewBox="0 0 14 16" fill="none" xmlns="http://www.w3.org/2000/svg">
<path d="M9.08235 12.3077V12.8462C9.08235 13.4174 8.85543 13.9652 8.4515 14.3692C8.04758 14.7731 7.49974 15 6.9285 15C6.35727 15 5.80943 14.7731 5.4055 14.3692C5.00158 13.9652 4.77466 13.4174 4.77466 12.8462V12.3077M12.7062 11.2116C11.842 10.1538 11.2318 9.61539 11.2318 6.69928C11.2318 4.02885 9.86817 3.07745 8.74581 2.61538C8.59672 2.55413 8.45639 2.41346 8.41095 2.26034C8.21408 1.59029 7.66216 1 6.9285 1C6.19485 1 5.64259 1.59063 5.44773 2.26101C5.4023 2.41582 5.26196 2.55413 5.11288 2.61538C3.98918 3.07813 2.62687 4.02615 2.62687 6.69928C2.62518 9.61539 2.01504 10.1538 1.15081 11.2116C0.792732 11.6498 1.10639 12.3077 1.73268 12.3077H12.1277C12.7506 12.3077 13.0623 11.6477 12.7062 11.2116Z" stroke="#737373" stroke-linecap="round" stroke-linejoin="round"/>
</svg>
