<svg width="16" height="15" viewBox="0 0 16 15" fill="none" xmlns="http://www.w3.org/2000/svg">
<path d="M5.78988 3.49143H5.91386L6.02348 3.43351L10.9511 0.829716V10.6241L6.03689 7.83194L5.92201 7.76667H5.78988H1.60296C1.12559 7.71229 0.865939 7.51059 0.716922 7.30954C0.55244 7.08762 0.5 6.83365 0.5 6.69053V4.43007C0.540248 4.03264 0.734839 3.8149 0.968181 3.68012C1.22942 3.52924 1.54728 3.48312 1.74954 3.49105L1.75933 3.49143H1.76913H5.78988Z" stroke="#737373"/>
<path d="M5.66113 8.26638V2.95898" stroke="#737373"/>
<path d="M1.51172 8.29883V12.8021C1.53316 13.2202 1.82695 14.0437 2.83053 13.9922C3.21652 14.0351 4.02067 13.9214 4.14933 13.1237V8.29883" stroke="#737373"/>
<path d="M11.4512 4.05273C11.9444 4.17068 12.9115 4.70249 12.8343 5.8862C12.7914 6.2293 12.4548 6.97984 11.4512 7.23717" stroke="#737373"/>
<path d="M13.7993 4.11732L15.3755 3.15234" stroke="#737373"/>
<path d="M14.1528 5.7251H15.922" stroke="#737373"/>
<path d="M13.7993 7.14062L15.3755 8.10561" stroke="#737373"/>
</svg>
