<svg width="18" height="17" viewBox="0 0 18 17" fill="none" xmlns="http://www.w3.org/2000/svg">
<path d="M14.2371 1.99365H15.7122C16.1907 2.04681 17.1156 2.45613 16.988 3.66815V14.074C17.0013 14.5391 16.7169 15.5252 15.473 15.7485H3.03387C2.3428 15.8016 0.96865 15.5412 1.00055 14.074V3.66815C1.00055 3.03025 1.04839 2.24881 2.35609 1.99365H5.02732" stroke="#737373"/>
<path d="M6.54248 2.07324H12.6026" stroke="#737373"/>
<path d="M12.8418 0.239258V4.02682" stroke="#737373"/>
<path d="M5.10693 0V4.10651" stroke="#737373"/>
<path d="M2.31641 6.37891H16.9882" stroke="#737373"/>
<circle cx="5.16697" cy="9.3491" r="0.578102" fill="#737373"/>
<circle cx="8.95457" cy="9.3491" r="0.578102" fill="#737373"/>
<circle cx="12.8218" cy="9.3491" r="0.578102" fill="#737373"/>
<circle cx="12.8218" cy="12.7383" r="0.578102" fill="#737373"/>
<circle cx="8.95457" cy="12.7383" r="0.578102" fill="#737373"/>
<circle cx="5.16697" cy="12.7383" r="0.578102" fill="#737373"/>
</svg>
