<svg width="16" height="17" viewBox="0 0 16 17" fill="none" xmlns="http://www.w3.org/2000/svg">
<path d="M3.3998 8.8002C3.24067 8.8002 3.08806 8.86341 2.97554 8.97593C2.86302 9.08845 2.7998 9.24107 2.7998 9.4002C2.7998 9.55933 2.86302 9.71194 2.97554 9.82446C3.08806 9.93698 3.24067 10.0002 3.3998 10.0002H3.7998C3.95893 10.0002 4.11155 9.93698 4.22407 9.82446C4.33659 9.71194 4.3998 9.55933 4.3998 9.4002C4.3998 9.24107 4.33659 9.08845 4.22407 8.97593C4.11155 8.86341 3.95893 8.8002 3.7998 8.8002H3.3998ZM2.7998 6.6002C2.7998 6.44107 2.86302 6.28845 2.97554 6.17593C3.08806 6.06341 3.24067 6.0002 3.3998 6.0002H3.7998C3.95893 6.0002 4.11155 6.06341 4.22407 6.17593C4.33659 6.28845 4.3998 6.44107 4.3998 6.6002C4.3998 6.75933 4.33659 6.91194 4.22407 7.02446C4.11155 7.13698 3.95893 7.2002 3.7998 7.2002H3.3998C3.24067 7.2002 3.08806 7.13698 2.97554 7.02446C2.86302 6.91194 2.7998 6.75933 2.7998 6.6002ZM3.3998 3.2002C3.24067 3.2002 3.08806 3.26341 2.97554 3.37593C2.86302 3.48845 2.7998 3.64107 2.7998 3.8002C2.7998 3.95933 2.86302 4.11194 2.97554 4.22446C3.08806 4.33698 3.24067 4.4002 3.3998 4.4002H3.7998C3.95893 4.4002 4.11155 4.33698 4.22407 4.22446C4.33659 4.11194 4.3998 3.95933 4.3998 3.8002C4.3998 3.64107 4.33659 3.48845 4.22407 3.37593C4.11155 3.26341 3.95893 3.2002 3.7998 3.2002H3.3998ZM5.5998 9.4002C5.5998 9.24107 5.66302 9.08845 5.77554 8.97593C5.88806 8.86341 6.04067 8.8002 6.1998 8.8002H6.5998C6.75893 8.8002 6.91155 8.86341 7.02407 8.97593C7.13659 9.08845 7.1998 9.24107 7.1998 9.4002C7.1998 9.55933 7.13659 9.71194 7.02407 9.82446C6.91155 9.93698 6.75893 10.0002 6.5998 10.0002H6.1998C6.04067 10.0002 5.88806 9.93698 5.77554 9.82446C5.66302 9.71194 5.5998 9.55933 5.5998 9.4002ZM6.1998 6.0002C6.04067 6.0002 5.88806 6.06341 5.77554 6.17593C5.66302 6.28845 5.5998 6.44107 5.5998 6.6002C5.5998 6.75933 5.66302 6.91194 5.77554 7.02446C5.88806 7.13698 6.04067 7.2002 6.1998 7.2002H6.5998C6.75893 7.2002 6.91155 7.13698 7.02407 7.02446C7.13659 6.91194 7.1998 6.75933 7.1998 6.6002C7.1998 6.44107 7.13659 6.28845 7.02407 6.17593C6.91155 6.06341 6.75893 6.0002 6.5998 6.0002H6.1998ZM5.5998 3.8002C5.5998 3.64107 5.66302 3.48845 5.77554 3.37593C5.88806 3.26341 6.04067 3.2002 6.1998 3.2002H6.5998C6.75893 3.2002 6.91155 3.26341 7.02407 3.37593C7.13659 3.48845 7.1998 3.64107 7.1998 3.8002C7.1998 3.95933 7.13659 4.11194 7.02407 4.22446C6.91155 4.33698 6.75893 4.4002 6.5998 4.4002H6.1998C6.04067 4.4002 5.88806 4.33698 5.77554 4.22446C5.66302 4.11194 5.5998 3.95933 5.5998 3.8002ZM8.9998 8.8002C8.84067 8.8002 8.68806 8.86341 8.57554 8.97593C8.46302 9.08845 8.3998 9.24107 8.3998 9.4002C8.3998 9.55933 8.46302 9.71194 8.57554 9.82446C8.68806 9.93698 8.84067 10.0002 8.9998 10.0002H9.3998C9.55893 10.0002 9.71155 9.93698 9.82407 9.82446C9.93659 9.71194 9.9998 9.55933 9.9998 9.4002C9.9998 9.24107 9.93659 9.08845 9.82407 8.97593C9.71155 8.86341 9.55893 8.8002 9.3998 8.8002H8.9998ZM8.3998 6.6002C8.3998 6.44107 8.46302 6.28845 8.57554 6.17593C8.68806 6.06341 8.84067 6.0002 8.9998 6.0002H9.3998C9.55893 6.0002 9.71155 6.06341 9.82407 6.17593C9.93659 6.28845 9.9998 6.44107 9.9998 6.6002C9.9998 6.75933 9.93659 6.91194 9.82407 7.02446C9.71155 7.13698 9.55893 7.2002 9.3998 7.2002H8.9998C8.84067 7.2002 8.68806 7.13698 8.57554 7.02446C8.46302 6.91194 8.3998 6.75933 8.3998 6.6002V6.6002ZM8.9998 3.2002C8.84067 3.2002 8.68806 3.26341 8.57554 3.37593C8.46302 3.48845 8.3998 3.64107 8.3998 3.8002C8.3998 3.95933 8.46302 4.11194 8.57554 4.22446C8.68806 4.33698 8.84067 4.4002 8.9998 4.4002H9.3998C9.55893 4.4002 9.71155 4.33698 9.82407 4.22446C9.93659 4.11194 9.9998 3.95933 9.9998 3.8002C9.9998 3.64107 9.93659 3.48845 9.82407 3.37593C9.71155 3.26341 9.55893 3.2002 9.3998 3.2002H8.9998Z" fill="#737373"/>
<path fill-rule="evenodd" clip-rule="evenodd" d="M0 15.2C0 15.6243 0.168571 16.0313 0.468629 16.3314C0.768687 16.6314 1.17565 16.8 1.6 16.8H4.6C4.75913 16.8 4.91174 16.7368 5.02426 16.6243C5.13679 16.5117 5.2 16.3591 5.2 16.2V14.4H7.6V16.2C7.6 16.5312 7.8688 16.8 8.2 16.8H11.2C11.2736 16.8 11.3464 16.7952 11.4176 16.7856C11.4612 16.7953 11.5057 16.8001 11.5504 16.8H14.4C14.8243 16.8 15.2313 16.6314 15.5314 16.3314C15.8314 16.0313 16 15.6243 16 15.2V8.8C16 8.55161 15.9422 8.30663 15.8311 8.08446C15.72 7.86229 15.5587 7.66904 15.36 7.52L14.96 7.22C14.8327 7.12452 14.6727 7.08353 14.5151 7.10603C14.3576 7.12853 14.2155 7.2127 14.12 7.34C14.0245 7.4673 13.9835 7.62732 14.006 7.78485C14.0285 7.94238 14.1127 8.08452 14.24 8.18L14.64 8.48C14.6897 8.51726 14.73 8.56557 14.7578 8.62111C14.7855 8.67666 14.8 8.7379 14.8 8.8V15.2C14.8 15.3061 14.7579 15.4078 14.6828 15.4828C14.6078 15.5579 14.5061 15.6 14.4 15.6H12.7496C12.7824 15.472 12.8 15.3384 12.8 15.2V1.6C12.8 1.17565 12.6314 0.768687 12.3314 0.468629C12.0313 0.168571 11.6243 0 11.2 0H1.6C1.17565 0 0.768687 0.168571 0.468629 0.468629C0.168571 0.768687 0 1.17565 0 1.6V15.2ZM1.6 15.6C1.49391 15.6 1.39217 15.5579 1.31716 15.4828C1.24214 15.4078 1.2 15.3061 1.2 15.2V1.6C1.2 1.49391 1.24214 1.39217 1.31716 1.31716C1.39217 1.24214 1.49391 1.2 1.6 1.2H11.2C11.3061 1.2 11.4078 1.24214 11.4828 1.31716C11.5579 1.39217 11.6 1.49391 11.6 1.6V15.2C11.6 15.3061 11.5579 15.4078 11.4828 15.4828C11.4078 15.5579 11.3061 15.6 11.2 15.6H8.8V13.8C8.8 13.6409 8.73679 13.4883 8.62426 13.3757C8.51174 13.2632 8.35913 13.2 8.2 13.2H4.6C4.44087 13.2 4.28826 13.2632 4.17574 13.3757C4.06321 13.4883 4 13.6409 4 13.8V15.6H1.6Z" fill="#737373"/>
</svg>
