<svg width="15" height="16" viewBox="0 0 15 16" fill="none" xmlns="http://www.w3.org/2000/svg">
<path fill-rule="evenodd" clip-rule="evenodd" d="M10.3739 0C12.9005 0 14.5977 1.73019 14.5977 4.30497V11.695C14.5977 14.2923 12.9527 15.9815 10.4068 15.9976L4.22461 16C1.69804 16 0 14.2698 0 11.695V4.30497C0 1.70688 1.645 0.0184832 4.19086 0.00321447L10.3731 0H10.3739ZM10.3739 1.20542L4.19488 1.20864C2.32406 1.21989 1.20542 2.3771 1.20542 4.30497V11.695C1.20542 13.6358 2.33451 14.7946 4.22381 14.7946L10.4028 14.7922C12.2736 14.7809 13.3923 13.6221 13.3923 11.695V4.30497C13.3923 2.36424 12.264 1.20542 10.3739 1.20542ZM10.2189 10.8277C10.5516 10.8277 10.8216 11.0977 10.8216 11.4304C10.8216 11.7631 10.5516 12.0331 10.2189 12.0331H4.41676C4.08406 12.0331 3.81404 11.7631 3.81404 11.4304C3.81404 11.0977 4.08406 10.8277 4.41676 10.8277H10.2189ZM10.2189 7.46335C10.5516 7.46335 10.8216 7.73336 10.8216 8.06606C10.8216 8.39875 10.5516 8.66877 10.2189 8.66877H4.41676C4.08406 8.66877 3.81404 8.39875 3.81404 8.06606C3.81404 7.73336 4.08406 7.46335 4.41676 7.46335H10.2189ZM6.63048 4.1068C6.96317 4.1068 7.23319 4.37682 7.23319 4.70951C7.23319 5.04221 6.96317 5.31223 6.63048 5.31223H4.41651C4.08382 5.31223 3.8138 5.04221 3.8138 4.70951C3.8138 4.37682 4.08382 4.1068 4.41651 4.1068H6.63048Z" fill="#737373"/>
</svg>
