<svg width="16" height="16" viewBox="0 0 16 16" fill="none" xmlns="http://www.w3.org/2000/svg">
<path d="M9.38044 0C9.50142 3.81236e-06 9.61928 0.0384044 9.71704 0.109671C9.8148 0.180939 9.88742 0.281394 9.92444 0.396571L10.553 2.34971C10.817 2.47886 11.0696 2.624 11.3107 2.78743L13.3176 2.35543C13.4359 2.33017 13.5592 2.34311 13.6697 2.3924C13.7802 2.4417 13.8722 2.52479 13.9324 2.62971L15.5164 5.37143C15.5769 5.47629 15.6025 5.59766 15.5896 5.71802C15.5767 5.83839 15.5258 5.95153 15.4444 6.04114L14.0673 7.56114C14.0874 7.85261 14.0874 8.14511 14.0673 8.43657L15.4444 9.95886C15.5258 10.0485 15.5767 10.1616 15.5896 10.282C15.6025 10.4023 15.5769 10.5237 15.5164 10.6286L13.9324 13.3714C13.872 13.4761 13.78 13.559 13.6695 13.6081C13.559 13.6572 13.4358 13.6699 13.3176 13.6446L11.3107 13.2126C11.0707 13.3749 10.817 13.5211 10.5542 13.6503L9.92444 15.6034C9.88742 15.7186 9.8148 15.8191 9.71704 15.8903C9.61928 15.9616 9.50142 16 9.38044 16H6.21244C6.09146 16 5.9736 15.9616 5.87584 15.8903C5.77808 15.8191 5.70546 15.7186 5.66844 15.6034L5.04101 13.6514C4.77772 13.5227 4.52377 13.3757 4.28101 13.2114L2.2753 13.6446C2.15697 13.6698 2.03368 13.6569 1.92318 13.6076C1.81269 13.5583 1.72069 13.4752 1.66044 13.3703L0.0764407 10.6286C0.0159545 10.5237 -0.00966567 10.4023 0.00327456 10.282C0.0162148 10.1616 0.0670467 10.0485 0.148441 9.95886L1.52558 8.43657C1.50564 8.14587 1.50564 7.85413 1.52558 7.56343L0.148441 6.04114C0.0670467 5.95153 0.0162148 5.83839 0.00327456 5.71802C-0.00966567 5.59766 0.0159545 5.47629 0.0764407 5.37143L1.66044 2.62857C1.72086 2.52386 1.81293 2.441 1.92341 2.39192C2.03389 2.34284 2.15709 2.33006 2.2753 2.35543L4.28101 2.78857C4.5233 2.62514 4.77701 2.47771 5.04101 2.34857L5.66958 0.396571C5.70648 0.281765 5.77876 0.181576 5.87606 0.110343C5.97336 0.0391102 6.09071 0.000486477 6.2113 0H9.3793H9.38044ZM8.96215 1.14286H6.63073L5.98158 3.16229L5.54387 3.376C5.32869 3.4813 5.12097 3.6012 4.92215 3.73486L4.51758 4.00914L2.44215 3.56114L1.27644 5.58171L2.6993 7.15657L2.66501 7.64114C2.64859 7.8801 2.64859 8.1199 2.66501 8.35886L2.6993 8.84343L1.27415 10.4183L2.44101 12.4389L4.51644 11.992L4.92101 12.2651C5.11982 12.3988 5.32755 12.5187 5.54273 12.624L5.98044 12.8377L6.63073 14.8571H8.96444L9.61587 12.8366L10.0524 12.624C10.2674 12.5189 10.4747 12.399 10.673 12.2651L11.0764 11.992L13.153 12.4389L14.3187 10.4183L12.8947 8.84343L12.929 8.35886C12.9455 8.11952 12.9455 7.87934 12.929 7.64L12.8947 7.15543L14.3199 5.58171L13.153 3.56114L11.0764 4.00686L10.673 3.73486C10.4748 3.60093 10.2674 3.48102 10.0524 3.376L9.61587 3.16343L8.9633 1.14286H8.96215ZM7.79644 4.57143C8.70575 4.57143 9.57783 4.93265 10.2208 5.57563C10.8638 6.21862 11.225 7.09069 11.225 8C11.225 8.90931 10.8638 9.78139 10.2208 10.4244C9.57783 11.0673 8.70575 11.4286 7.79644 11.4286C6.88713 11.4286 6.01506 11.0673 5.37207 10.4244C4.72909 9.78139 4.36787 8.90931 4.36787 8C4.36787 7.09069 4.72909 6.21862 5.37207 5.57563C6.01506 4.93265 6.88713 4.57143 7.79644 4.57143V4.57143ZM7.79644 5.71429C7.19023 5.71429 6.60885 5.9551 6.1802 6.38376C5.75154 6.81241 5.51073 7.39379 5.51073 8C5.51073 8.60621 5.75154 9.18759 6.1802 9.61624C6.60885 10.0449 7.19023 10.2857 7.79644 10.2857C8.40265 10.2857 8.98403 10.0449 9.41268 9.61624C9.84134 9.18759 10.0822 8.60621 10.0822 8C10.0822 7.39379 9.84134 6.81241 9.41268 6.38376C8.98403 5.9551 8.40265 5.71429 7.79644 5.71429V5.71429Z" fill="#737373"/>
</svg>
