<svg width="13" height="16" viewBox="0 0 13 16" fill="none" xmlns="http://www.w3.org/2000/svg">
<path d="M0 8C0 8.10609 0.0421428 8.20783 0.117157 8.28284C0.192172 8.35786 0.293913 8.4 0.4 8.4H7.4344L5.3168 10.5168C5.27961 10.5539 5.2501 10.598 5.22995 10.6466C5.2098 10.6951 5.19941 10.7472 5.19938 10.7997C5.1993 10.9059 5.2414 11.0077 5.3164 11.0828C5.3914 11.1579 5.49317 11.2001 5.59932 11.2002C5.70546 11.2003 5.80729 11.1582 5.8824 11.0832L8.6824 8.2832C8.75739 8.20819 8.79951 8.10647 8.79951 8.0004C8.79951 7.89433 8.75739 7.79261 8.6824 7.7176L5.8824 4.9176C5.80696 4.84474 5.70592 4.80442 5.60104 4.80533C5.49616 4.80624 5.39584 4.84831 5.32167 4.92247C5.24751 4.99664 5.20544 5.09696 5.20453 5.20184C5.20362 5.30672 5.24394 5.40776 5.3168 5.4832L7.4344 7.6H0.4C0.293913 7.6 0.192172 7.64214 0.117157 7.71716C0.0421428 7.79217 0 7.89391 0 8ZM10.8 0H2C1.4697 0.000423734 0.961235 0.211274 0.586255 0.586255C0.211274 0.961235 0.000423734 1.4697 0 2V5.2C0 5.30609 0.0421428 5.40783 0.117157 5.48284C0.192172 5.55786 0.293913 5.6 0.4 5.6C0.506087 5.6 0.607828 5.55786 0.682843 5.48284C0.757857 5.40783 0.8 5.30609 0.8 5.2V2C0.8 1.68174 0.926428 1.37652 1.15147 1.15147C1.37652 0.926428 1.68174 0.8 2 0.8H10.8C11.1183 0.8 11.4235 0.926428 11.6485 1.15147C11.8736 1.37652 12 1.68174 12 2V14C12 14.3183 11.8736 14.6235 11.6485 14.8485C11.4235 15.0736 11.1183 15.2 10.8 15.2H2C1.68174 15.2 1.37652 15.0736 1.15147 14.8485C0.926428 14.6235 0.8 14.3183 0.8 14V10.8C0.8 10.6939 0.757857 10.5922 0.682843 10.5172C0.607828 10.4421 0.506087 10.4 0.4 10.4C0.293913 10.4 0.192172 10.4421 0.117157 10.5172C0.0421428 10.5922 0 10.6939 0 10.8V14C0.000423734 14.5303 0.211274 15.0388 0.586255 15.4137C0.961235 15.7887 1.4697 15.9996 2 16H10.8C11.3303 15.9996 11.8388 15.7887 12.2137 15.4137C12.5887 15.0388 12.7996 14.5303 12.8 14V2C12.7996 1.4697 12.5887 0.961235 12.2137 0.586255C11.8388 0.211274 11.3303 0.000423734 10.8 0V0Z" fill="#737373"/>
</svg>
