<svg width="48" height="48" viewBox="0 0 48 48" fill="none" xmlns="http://www.w3.org/2000/svg">
<circle cx="24" cy="24" r="23.5" stroke="#2B2A29" stroke-opacity="0.1"/>
<path d="M27.333 20.6665C28.6591 20.6665 29.9309 21.1933 30.8685 22.131C31.8062 23.0687 32.333 24.3404 32.333 25.6665V31.4998H28.9997V25.6665C28.9997 25.2245 28.8241 24.8006 28.5115 24.488C28.199 24.1754 27.775 23.9998 27.333 23.9998C26.891 23.9998 26.4671 24.1754 26.1545 24.488C25.8419 24.8006 25.6663 25.2245 25.6663 25.6665V31.4998H22.333V25.6665C22.333 24.3404 22.8598 23.0687 23.7975 22.131C24.7352 21.1933 26.0069 20.6665 27.333 20.6665V20.6665Z" stroke="#727271" stroke-width="1.25" stroke-linecap="round"/>
<path d="M19.0003 21.5H15.667L15.667 31.5H19.0003V21.5Z" stroke="#727271" stroke-width="1.25" stroke-linecap="round"/>
<path d="M17.3337 18.9998C18.2541 18.9998 19.0003 18.2536 19.0003 17.3332C19.0003 16.4127 18.2541 15.6665 17.3337 15.6665C16.4132 15.6665 15.667 16.4127 15.667 17.3332C15.667 18.2536 16.4132 18.9998 17.3337 18.9998Z" stroke="#727271" stroke-width="1.25" stroke-linecap="round"/>
</svg>
