<svg width="38" height="38" viewBox="0 0 38 38" fill="none" xmlns="http://www.w3.org/2000/svg">
<circle opacity="0.2" cx="19" cy="19" r="19" fill="#C4C4C4"/>
<path d="M13.9021 21.7833C13.8287 23.0544 13.2818 24.2075 12.749 25.0145C12.5036 25.3862 12.7617 25.9585 13.2071 25.9585H25.7774C26.2229 25.9585 26.4368 25.4288 26.1348 25.1013C25.4709 24.3814 24.953 23.5753 24.9434 22.2384C24.9433 22.2137 24.9453 22.1876 24.9489 22.1632C26.1832 13.7989 21.9554 12.1182 19.701 12.041C12.3711 12.4121 14.0412 19.3709 13.9021 21.7833Z" stroke="black" stroke-width="1.25"/>
<path d="M17.892 12.3196C17.7219 11.6701 17.8456 10 19.3765 10C20.4435 10 21.0466 10.4639 21.0466 12.3196" stroke="black" stroke-width="1.25"/>
<path d="M17.7528 25.959C17.6754 26.6239 17.9198 27.9631 19.5157 28.0002C20.0414 28.0002 21.093 27.592 21.093 25.959" stroke="black" stroke-width="1.25"/>
</svg>
