<svg width="38" height="38" viewBox="0 0 38 38" fill="none" xmlns="http://www.w3.org/2000/svg">
<circle opacity="0.2" cx="19" cy="19" r="19" fill="#C4C4C4"/>
<path d="M25.6667 26.5V24.8333C25.6667 23.9493 25.3155 23.1014 24.6904 22.4763C24.0652 21.8512 23.2174 21.5 22.3333 21.5H15.6667C14.7826 21.5 13.9348 21.8512 13.3097 22.4763C12.6845 23.1014 12.3333 23.9493 12.3333 24.8333V26.5" stroke="black" stroke-width="1.25" stroke-linecap="round" stroke-linejoin="round"/>
<path d="M19 18.1667C20.8409 18.1667 22.3333 16.6743 22.3333 14.8333C22.3333 12.9924 20.8409 11.5 19 11.5C17.159 11.5 15.6667 12.9924 15.6667 14.8333C15.6667 16.6743 17.159 18.1667 19 18.1667Z" stroke="black" stroke-width="1.25" stroke-linecap="round" stroke-linejoin="round"/>
</svg>
