<svg width="28" height="28" viewBox="0 0 28 28" fill="none" xmlns="http://www.w3.org/2000/svg">
<circle cx="14" cy="14" r="14" fill="white"/>
<path d="M21 9.33327C20.4856 9.56112 19.9324 9.71302 19.3487 9.78499C19.942 9.43277 20.3987 8.87094 20.613 8.20696C20.0578 8.53231 19.4425 8.77144 18.7882 8.89747C18.2655 8.3436 17.5199 8 16.6941 8C15.1077 8 13.8216 9.27457 13.8216 10.8463C13.8216 11.0688 13.8478 11.2854 13.8965 11.4957C11.5099 11.376 9.39292 10.2414 7.97674 8.51938C7.72799 8.94025 7.58803 9.43277 7.58803 9.95281C7.58803 10.9408 8.09381 11.8108 8.86525 12.3232C8.3943 12.3089 7.9512 12.1779 7.56316 11.9676C7.56316 11.9763 7.56316 11.9889 7.56316 12.0011C7.56316 13.3818 8.55349 14.5317 9.8662 14.7934C9.62641 14.859 9.37269 14.8955 9.11134 14.8955C8.92595 14.8955 8.74519 14.8746 8.57008 14.8431C8.93556 15.9714 9.99588 16.7963 11.2522 16.8208C10.2692 17.583 9.03108 18.0393 7.68488 18.0393C7.45238 18.0393 7.22486 18.0261 7 17.9989C8.27258 18.8045 9.78262 19.2764 11.4038 19.2764C16.6861 19.2764 19.5762 14.9386 19.5762 11.1753C19.5762 11.0519 19.5722 10.9292 19.5666 10.8078C20.1304 10.4095 20.6163 9.90737 21 9.33327Z" fill="#2AA4F4"/>
</svg>
