<svg width="22" height="22" viewBox="0 0 22 22" fill="none" xmlns="http://www.w3.org/2000/svg">
<path d="M15.6744 3.83277L18.1662 6.32338M17.2768 1.63863L10.5391 8.37634C10.191 8.72399 9.95353 9.16692 9.85673 9.6493L9.23438 12.7646L12.3497 12.1411C12.8321 12.0446 13.2744 11.8081 13.6227 11.4599L20.3604 4.72219C20.5628 4.51972 20.7234 4.27935 20.833 4.01481C20.9426 3.75027 20.999 3.46674 20.999 3.18041C20.999 2.89407 20.9426 2.61054 20.833 2.346C20.7234 2.08146 20.5628 1.8411 20.3604 1.63863C20.1579 1.43616 19.9175 1.27555 19.653 1.16597C19.3885 1.0564 19.1049 1 18.8186 1C18.5323 1 18.2487 1.0564 17.9842 1.16597C17.7196 1.27555 17.4793 1.43616 17.2768 1.63863V1.63863Z" stroke="#999999" stroke-width="2" stroke-linecap="round" stroke-linejoin="round"/>
<path d="M18.6472 15.1179V18.6473C18.6472 19.2713 18.3993 19.8698 17.9581 20.3111C17.5168 20.7524 16.9183 21.0003 16.2943 21.0003H3.35297C2.72892 21.0003 2.13043 20.7524 1.68917 20.3111C1.2479 19.8698 1 19.2713 1 18.6473V5.70599C1 5.08195 1.2479 4.48346 1.68917 4.04219C2.13043 3.60093 2.72892 3.35303 3.35297 3.35303H6.88241" stroke="#999999" stroke-width="2" stroke-linecap="round" stroke-linejoin="round"/>
</svg>
