<svg width="20" height="17" viewBox="0 0 20 17" fill="none" xmlns="http://www.w3.org/2000/svg">
<rect x="4.69045" y="4.1508" width="14.0583" height="10.8245" rx="2.5" transform="rotate(3.15737 4.69045 4.1508)" stroke="#D7D7D7"/>
<path d="M10.3107 10.1063C9.53767 9.16528 8.8374 9.51044 8.47569 9.91463C8.36872 10.0342 8.27692 10.1667 8.17065 10.2868C6.51981 12.153 7.73934 15.1013 10.2261 15.256L13.2688 15.4452C15.026 15.5546 16.0881 13.537 15.0032 12.1503C14.5512 11.5058 13.9485 11.5058 13.4319 11.8252L12.8076 12.1503C12.4202 12.3361 11.882 12.1019 11.43 11.5058L10.3107 10.1063Z" fill="#D7D7D7" stroke="#D7D7D7"/>
<circle cx="15.3118" cy="7.84545" r="1.65942" fill="#D7D7D7"/>
<path d="M3.65882 13.6151H3.28434C2.96064 13.6151 2.61957 13.7226 2.31575 13.6109C2.02926 13.5055 1.75971 13.1813 1.75971 12.4015L1.00282 3.81714C0.974044 3.47041 1.13818 2.20782 2.79559 1.99979L13.3497 1.06718C13.507 1.05328 13.6624 1.02192 13.8196 1.00743C14.2439 0.96832 14.8479 1.07023 15.1676 1.63681C15.2953 1.86321 15.3125 2.13141 15.3125 2.39135V4.34019" stroke="#D7D7D7"/>
</svg>
