<svg width="18" height="18" viewBox="0 0 18 18" fill="none" xmlns="http://www.w3.org/2000/svg">
<path d="M13.167 1.49993C13.3859 1.28106 13.6457 1.10744 13.9317 0.988988C14.2176 0.870536 14.5241 0.80957 14.8337 0.80957C15.1432 0.80957 15.4497 0.870536 15.7357 0.988988C16.0216 1.10744 16.2815 1.28106 16.5003 1.49993C16.7192 1.7188 16.8928 1.97863 17.0113 2.2646C17.1297 2.55057 17.1907 2.85706 17.1907 3.16659C17.1907 3.47612 17.1297 3.78262 17.0113 4.06859C16.8928 4.35455 16.7192 4.61439 16.5003 4.83326L5.25033 16.0833L0.666992 17.3333L1.91699 12.7499L13.167 1.49993Z" stroke="white" stroke-width="1.25" stroke-linecap="round" stroke-linejoin="round"/>
</svg>
