<svg width="60" height="60" viewBox="0 0 60 60" fill="none" xmlns="http://www.w3.org/2000/svg">
<circle opacity="0.3" cx="30" cy="30" r="29.375" stroke="#BA9E78" stroke-width="1.25"/>
<path d="M42 37.7778C42 38.3671 41.7701 38.9324 41.361 39.3491C40.9518 39.7659 40.3968 40 39.8182 40H20.1818C19.6032 40 19.0482 39.7659 18.639 39.3491C18.2299 38.9324 18 38.3671 18 37.7778V25.5556C18 24.9662 18.2299 24.401 18.639 23.9842C19.0482 23.5675 19.6032 23.3333 20.1818 23.3333H24.5455L26.7273 20H33.2727L35.4545 23.3333H39.8182C40.3968 23.3333 40.9518 23.5675 41.361 23.9842C41.7701 24.401 42 24.9662 42 25.5556V37.7778Z" stroke="#BA9E78" stroke-width="1.25" stroke-linecap="round" stroke-linejoin="round"/>
<path d="M30 36C32.7614 36 35 33.7614 35 31C35 28.2386 32.7614 26 30 26C27.2386 26 25 28.2386 25 31C25 33.7614 27.2386 36 30 36Z" stroke="#BA9E78" stroke-width="1.25" stroke-linecap="round" stroke-linejoin="round"/>
</svg>
