<svg width="60" height="60" viewBox="0 0 60 60" fill="none" xmlns="http://www.w3.org/2000/svg">
<circle opacity="0.3" cx="30" cy="30" r="29.375" stroke="#BA9E78" stroke-width="1.25"/>
<path d="M30 39.3333H40.5" stroke="#BA9E78" stroke-width="1.25" stroke-linecap="round" stroke-linejoin="round"/>
<path d="M35.25 20.0835C35.7141 19.6194 36.3436 19.3586 37 19.3586C37.325 19.3586 37.6468 19.4227 37.9471 19.547C38.2474 19.6714 38.5202 19.8537 38.75 20.0835C38.9798 20.3133 39.1621 20.5862 39.2865 20.8864C39.4109 21.1867 39.4749 21.5085 39.4749 21.8335C39.4749 22.1585 39.4109 22.4803 39.2865 22.7806C39.1621 23.0809 38.9798 23.3537 38.75 23.5835L24.1667 38.1668L19.5 39.3335L20.6667 34.6668L35.25 20.0835Z" stroke="#BA9E78" stroke-width="1.25" stroke-linecap="round" stroke-linejoin="round"/>
</svg>
