<svg width="48" height="48" viewBox="0 0 48 48" fill="none" xmlns="http://www.w3.org/2000/svg">
<circle cx="24" cy="24" r="23.5" stroke="#2B2A29" stroke-opacity="0.1"/>
<path d="M27.333 20.666C28.6591 20.666 29.9309 21.1928 30.8685 22.1305C31.8062 23.0682 32.333 24.3399 32.333 25.666V31.4993H28.9997V25.666C28.9997 25.224 28.8241 24.8001 28.5115 24.4875C28.199 24.1749 27.775 23.9993 27.333 23.9993C26.891 23.9993 26.4671 24.1749 26.1545 24.4875C25.8419 24.8001 25.6663 25.224 25.6663 25.666V31.4993H22.333V25.666C22.333 24.3399 22.8598 23.0682 23.7975 22.1305C24.7352 21.1928 26.0069 20.666 27.333 20.666V20.666Z" stroke="#727271" stroke-width="1.25" stroke-linecap="round"/>
<path d="M19.0003 21.5H15.667L15.667 31.5H19.0003V21.5Z" stroke="#727271" stroke-width="1.25" stroke-linecap="round"/>
<path d="M17.3337 18.9993C18.2541 18.9993 19.0003 18.2532 19.0003 17.3327C19.0003 16.4122 18.2541 15.666 17.3337 15.666C16.4132 15.666 15.667 16.4122 15.667 17.3327C15.667 18.2532 16.4132 18.9993 17.3337 18.9993Z" stroke="#727271" stroke-width="1.25" stroke-linecap="round"/>
</svg>
