<svg width="48" height="48" viewBox="0 0 48 48" fill="none" xmlns="http://www.w3.org/2000/svg">
<circle cx="24" cy="24" r="23.5" stroke="#2B2A29" stroke-opacity="0.1"/>
<path d="M32.25 17.3961C31.51 17.8938 30.6907 18.2745 29.8236 18.5235C29.3583 18.0132 28.7398 17.6515 28.0518 17.4874C27.3638 17.3232 26.6396 17.3645 25.9771 17.6057C25.3145 17.8468 24.7456 18.2762 24.3473 18.8357C23.949 19.3952 23.7405 20.0579 23.75 20.7341V21.471C22.392 21.5046 21.0464 21.2174 19.8331 20.635C18.6197 20.0526 17.5762 19.193 16.7955 18.133C16.7955 18.133 13.7045 24.7648 20.6591 27.7123C19.0677 28.7424 17.1719 29.259 15.25 29.1861C22.2045 32.8704 30.7045 29.1861 30.7045 20.712C30.7038 20.5068 30.6831 20.302 30.6427 20.1004C31.4314 19.3587 31.9879 18.4223 32.25 17.3961Z" stroke="#727271" stroke-width="1.25" stroke-linecap="round"/>
</svg>
